<svg width="20" height="20" viewBox="0 0 20 20" fill="none" xmlns="http://www.w3.org/2000/svg">
<path d="M11.6667 13.468L8.3667 10.168" stroke="#0F58A5" stroke-width="1.5" stroke-miterlimit="10" stroke-linecap="round" stroke-linejoin="round"/>
<path d="M11.6333 10.1992L8.33325 13.4992" stroke="#0F58A5" stroke-width="1.5" stroke-miterlimit="10" stroke-linecap="round" stroke-linejoin="round"/>
<path d="M8.33341 5.0013H11.6667C13.3334 5.0013 13.3334 4.16797 13.3334 3.33464C13.3334 1.66797 12.5001 1.66797 11.6667 1.66797H8.33341C7.50008 1.66797 6.66675 1.66797 6.66675 3.33464C6.66675 5.0013 7.50008 5.0013 8.33341 5.0013Z" stroke="#0F58A5" stroke-width="1.5" stroke-miterlimit="10" stroke-linecap="round" stroke-linejoin="round"/>
<path d="M13.3333 3.35156C16.1083 3.50156 17.5 4.52656 17.5 8.3349V13.3349C17.5 16.6682 16.6667 18.3349 12.5 18.3349H7.5C3.33333 18.3349 2.5 16.6682 2.5 13.3349V8.3349C2.5 4.5349 3.89167 3.50156 6.66667 3.35156" stroke="#0F58A5" stroke-width="1.5" stroke-miterlimit="10" stroke-linecap="round" stroke-linejoin="round"/>
</svg>
